<svg width="22" height="27" viewBox="0 0 22 27" fill="none" xmlns="http://www.w3.org/2000/svg">
<path d="M21.5005 15.75C21.5005 17.8267 20.8847 19.8568 19.7309 21.5835C18.5772 23.3102 16.9373 24.656 15.0187 25.4507C13.1 26.2455 10.9888 26.4534 8.95204 26.0482C6.91524 25.6431 5.04432 24.6431 3.57587 23.1746C2.10742 21.7062 1.10739 19.8352 0.702244 17.7984C0.297098 15.7616 0.505033 13.6504 1.29975 11.7318C2.09447 9.8132 3.44028 8.17332 5.167 7.01957C6.89372 5.86581 8.92378 5.25 11.0005 5.25H14.5005V0.875L19.7505 6.125L14.5005 11.375V7H11.0005C9.2699 7 7.57818 7.51318 6.13925 8.47464C4.70032 9.4361 3.57881 10.8027 2.91654 12.4015C2.25427 14.0004 2.081 15.7597 2.41862 17.457C2.75624 19.1544 3.58959 20.7135 4.8133 21.9372C6.03701 23.1609 7.59611 23.9942 9.29345 24.3319C10.9908 24.6695 12.7501 24.4962 14.349 23.8339C15.9478 23.1717 17.3144 22.0502 18.2758 20.6112C19.2373 19.1723 19.7505 17.4806 19.7505 15.75H21.5005Z" fill="white"/>
</svg>
