<svg width="18" height="13" viewBox="0 0 18 13" fill="none" xmlns="http://www.w3.org/2000/svg">
<path d="M7.1429 9.58955C6.55575 10.6096 6.95116 11.4473 7.76669 11.9177C8.58137 12.3889 9.50598 12.314 10.0948 11.2939C10.682 10.2756 14.3958 1.18286 14.0728 0.996231C13.7498 0.809605 7.7309 8.57035 7.1429 9.58955ZM8.73902 3.11303C9.11228 3.11303 9.4753 3.14456 9.83066 3.20592C10.2039 2.73807 10.6215 2.22251 11.028 1.73336C10.284 1.51805 9.51348 1.40875 8.73902 1.40868C3.96089 1.40868 0.217285 5.43861 0.217285 10.5832C0.217285 10.8993 0.23092 11.2155 0.259042 11.5231C0.300798 11.9927 0.719216 12.337 1.1828 12.2969C1.65235 12.2534 1.99833 11.841 1.95657 11.3714C1.9333 11.1093 1.92164 10.8463 1.92163 10.5832C1.92163 6.3939 4.91617 3.11303 8.73902 3.11303ZM14.8909 4.17825C14.6531 4.81738 14.4017 5.46844 14.1802 6.03087C15.0451 7.28357 15.5564 8.85498 15.5564 10.5832C15.5564 10.8525 15.5436 11.1243 15.5198 11.3868C15.5088 11.6067 15.5833 11.8223 15.7276 11.9885C15.8719 12.1547 16.0749 12.2588 16.2941 12.2788C16.5134 12.2988 16.7318 12.2333 16.9039 12.096C17.076 11.9586 17.1882 11.7601 17.2173 11.5419C17.2454 11.2266 17.2608 10.9045 17.2608 10.5832C17.2608 8.06587 16.3634 5.81954 14.8909 4.17825Z" fill="white"/>
</svg>
