<svg width="22" height="27" viewBox="0 0 22 27" fill="none" xmlns="http://www.w3.org/2000/svg">
<path d="M0.500488 15.75C0.500488 17.8267 1.1163 19.8568 2.27006 21.5835C3.42381 23.3102 5.06369 24.656 6.98231 25.4507C8.90094 26.2455 11.0121 26.4534 13.0489 26.0482C15.0857 25.6431 16.9567 24.6431 18.4251 23.1746C19.8936 21.7062 20.8936 19.8352 21.2987 17.7984C21.7039 15.7616 21.4959 13.6504 20.7012 11.7318C19.9065 9.8132 18.5607 8.17332 16.834 7.01957C15.1073 5.86581 13.0772 5.25 11.0005 5.25H7.50049V0.875L2.25049 6.125L7.50049 11.375V7H11.0005C12.7311 7 14.4228 7.51318 15.8617 8.47464C17.3007 9.4361 18.4222 10.8027 19.0844 12.4015C19.7467 14.0004 19.92 15.7597 19.5824 17.457C19.2447 19.1544 18.4114 20.7135 17.1877 21.9372C15.964 23.1609 14.4049 23.9942 12.7075 24.3319C11.0102 24.6695 9.25086 24.4962 7.65201 23.8339C6.05315 23.1717 4.68659 22.0502 3.72513 20.6112C2.76367 19.1723 2.25049 17.4806 2.25049 15.75H0.500488Z" fill="white"/>
</svg>
